<?xml version="1.0" encoding="utf-8"?>
<!-- Generator: Adobe Illustrator 20.0.0, SVG Export Plug-In . SVG Version: 6.00 Build 0)  -->
<svg version="1.1" id="Layer_1" xmlns="http://www.w3.org/2000/svg" xmlns:xlink="http://www.w3.org/1999/xlink" x="0px" y="0px"
	 viewBox="0 0 522 392" style="enable-background:new 0 0 522 392;" xml:space="preserve">
<style type="text/css">
	.st0{fill:#FFFFFF;}
</style>
<path class="st0" d="M97.3,261.1h-30c-1,0-1.8,0.8-1.8,1.8v61.6c0,1,0.8,1.8,1.8,1.8h6c1,0,1.8-0.8,1.8-1.8v-26.2h19.4
	c1,0,1.8-0.8,1.8-1.8v-6c0-1-0.8-1.8-1.8-1.8H75.1v-18.2h22.2c1,0,1.8-0.8,1.8-1.8v-6C99,261.9,98.2,261.1,97.3,261.1z"/>
<path class="st0" d="M143.5,316.8h-22.2v-53.9c0-1-0.8-1.8-1.8-1.8h-6c-1,0-1.8,0.8-1.8,1.8v61.6c0,1,0.8,1.8,1.8,1.8h30
	c1,0,1.8-0.8,1.8-1.8v-6C145.3,317.5,144.5,316.8,143.5,316.8z"/>
<path class="st0" d="M185.4,260.9h-6.7c-0.6,0-1.2,0.4-1.5,0.9l-13.6,25.1l-13.8-25.1c-0.3-0.6-0.9-0.9-1.5-0.9h-6.7
	c-0.6,0-1.2,0.3-1.5,0.9c-0.3,0.5-0.3,1.2,0,1.7l18.7,34.4v26.6c0,1,0.8,1.8,1.8,1.8h6c1,0,1.8-0.8,1.8-1.8v-26l18.7-35.1
	c0.3-0.5,0.3-1.2,0-1.7C186.6,261.2,186.1,260.9,185.4,260.9z"/>
<path class="st0" d="M455,316.8h-22.2v-53.9c0-1-0.8-1.8-1.8-1.8h-6c-1,0-1.8,0.8-1.8,1.8v61.6c0,1,0.8,1.8,1.8,1.8h30
	c1,0,1.8-0.8,1.8-1.8v-6C456.8,317.5,456,316.8,455,316.8z"/>
<path class="st0" d="M311.5,261.1h-6c-1,0-1.8,0.8-1.8,1.8v25.9h-21.5v-25.9c0-1-0.8-1.8-1.8-1.8h-6c-1,0-1.8,0.8-1.8,1.8v61.6
	c0,1,0.8,1.8,1.8,1.8h6c1,0,1.8-0.8,1.8-1.8v-26.2h21.5v26.2c0,1,0.8,1.8,1.8,1.8h6c1,0,1.8-0.8,1.8-1.8v-61.6
	C313.3,261.9,312.5,261.1,311.5,261.1z"/>
<path class="st0" d="M359.9,261.1h-30.4c-1,0-1.8,0.8-1.8,1.8v61.6c0,1,0.8,1.8,1.8,1.8h30.4c1,0,1.8-0.8,1.8-1.8v-6
	c0-1-0.8-1.8-1.8-1.8h-22.6v-18.5h19.7c1,0,1.8-0.8,1.8-1.8v-6c0-1-0.8-1.8-1.8-1.8h-19.7v-18.2h22.6c1,0,1.8-0.8,1.8-1.8v-6
	C361.6,261.9,360.8,261.1,359.9,261.1z"/>
<path class="st0" d="M407.8,261.1h-30.4c-1,0-1.8,0.8-1.8,1.8v61.6c0,1,0.8,1.8,1.8,1.8h30.4c1,0,1.8-0.8,1.8-1.8v-6
	c0-1-0.8-1.8-1.8-1.8h-22.6v-18.5h19.8c1,0,1.8-0.8,1.8-1.8v-6c0-1-0.8-1.8-1.8-1.8h-19.8v-18.2h22.6c1,0,1.8-0.8,1.8-1.8v-6
	C409.5,261.9,408.7,261.1,407.8,261.1z"/>
<path class="st0" d="M260.5,261.1h-6.6c-0.6,0-1.1,0.4-1.2,1l-10.1,43.6l-10.3-43.7c-0.1-0.6-0.6-1-1.2-1h-6.6c-0.6,0-1.1,0.4-1.2,1
	l-10.3,43.6l-10.1-43.6c-0.1-0.6-0.6-1-1.2-1H195c-0.4,0-0.7,0.2-1,0.5c-0.2,0.3-0.3,0.7-0.2,1.1l14.6,62.7c0,0.2,0.1,0.4,0.2,0.6
	c0.2,0.3,0.6,0.5,1,0.5h6.6c0.6,0,1.1-0.4,1.2-1l10.4-43.8l10.3,43.8c0.1,0.6,0.6,1,1.2,1h6.6c0.6,0,1.1-0.4,1.2-1l14.6-62.8
	c0.1-0.4,0-0.8-0.2-1.1C261.2,261.3,260.9,261.1,260.5,261.1z"/>
<path class="st0" d="M253.7,82c-35.2,0-63.8,28.6-63.8,63.8s28.6,63.8,63.8,63.8s63.8-28.6,63.8-63.8S288.9,82,253.7,82z M236.6,91
	c5.4-1.7,11.1-2.6,17.1-2.6c6.2,0,12.2,1,17.8,2.8c-3.7,2.5-6.3,6-7.7,10.2c-2.4,7.3,0.1,14,2.4,19.8l0.2,0.6
	c1.3,3.5,1.9,7.9-1.4,11c-1.4-1.2-2.9-2.2-4.7-3c0.5-7.2-3.7-13.5-11.7-17.2l-0.6-0.3c-5.3-2.4-9.9-4.5-12.1-8.8
	c-2.5-4.8-1.1-9.3,0.6-12.4L236.6,91z M262.7,145.7c0,5-4,9-9,9s-9-4-9-9s4-9,9-9S262.7,140.7,262.7,145.7z M226.7,95.2
	c-0.7,4.2,0,8.4,2,12.2c3.6,6.8,10.1,9.8,15.9,12.4l0.6,0.3c3.4,1.5,7,4.2,7.1,8.6c-1.9,0.1-3.7,0.6-5.4,1.3
	c-4.8-5.5-12.3-7.1-20.6-4.2l-0.7,0.2c-5.4,2-10.1,3.7-14.9,2.1c-4.8-1.5-7.2-5.3-8.3-8.3C207.8,109.4,216.3,100.7,226.7,95.2z
	 M198.9,162.7c-1.6-5.3-2.5-11-2.5-16.9c0-5.7,0.9-11.3,2.4-16.5c2.5,3.1,5.8,5.3,9.6,6.5c7.4,2.4,14.1,0,20.1-2.2l0.7-0.2
	c3.6-1.3,8.2-1.9,11.5,1.5c-1.1,1.3-2,2.8-2.6,4.4c-7.5-0.7-14.1,3.3-17.8,11.3l-0.3,0.6c-2.4,5.1-4.5,9.6-8.9,11.8
	c-4.5,2.2-9,1.1-11.9-0.2L198.9,162.7z M226.2,196.2c-10-5.5-18.2-13.9-23.5-24.1c0.9,0.1,1.8,0.2,2.7,0.2c3.2,0,6.2-0.7,9.1-2.1
	c7-3.4,10-9.9,12.6-15.5l0.3-0.6c1.6-3.4,4.5-7.1,9.4-6.8c0.2,1.7,0.6,3.4,1.2,4.9c-5.8,4.7-7.5,12.2-4.3,20.5l0.2,0.7
	c2,5.3,3.8,9.9,2.3,14.5c-1.7,5.1-6,7.3-9.4,8.3L226.2,196.2z M271,200.5c-5.5,1.7-11.3,2.7-17.3,2.7c-6.1,0-12.1-1-17.6-2.8
	c3.7-2.5,6.3-6,7.7-10.2c2.4-7.3-0.1-14-2.4-19.8l-0.2-0.6c-1.3-3.5-2-8,1.6-11.2c1.4,1.2,2.9,2.1,4.5,2.8
	c-0.7,7.3,3.5,13.8,11.7,17.5l0.6,0.3c5.3,2.4,9.9,4.5,12.1,8.8c2.5,4.8,1.1,9.3-0.6,12.4C271.2,200.4,271.1,200.5,271,200.5z
	 M280.9,196.4c0.6-4.2-0.1-8.3-2-12.1c-3.6-6.8-10.1-9.8-15.9-12.4l-0.6-0.3c-3.5-1.6-7.2-4.4-7.1-9c1.8-0.2,3.5-0.6,5.1-1.2
	c4.8,5.7,12.4,7.5,20.8,4.5l0.7-0.2c5.4-2,10.1-3.7,14.9-2.1c4.7,1.5,7.1,5.1,8.2,8.1C299.7,182.1,291.2,190.8,280.9,196.4z
	 M311.1,145.8c0,5.7-0.8,11.2-2.4,16.4c-2.5-3-5.7-5.2-9.5-6.4c-7.4-2.4-14.1,0-20.1,2.2l-0.7,0.2c-3.7,1.3-8.4,1.9-11.7-1.7
	c1.1-1.3,1.9-2.7,2.6-4.2c0.7,0.1,1.3,0.1,1.9,0.1c6.8,0,12.6-4.1,16.1-11.4l0.3-0.6c2.4-5.1,4.5-9.6,8.9-11.8c4.5-2.2,9-1.2,12,0.2
	C310.2,134.2,311.1,139.9,311.1,145.8z M293,121.5c-7,3.4-10,9.9-12.6,15.5l-0.3,0.6c-1.6,3.5-4.5,7.2-9.5,6.8
	c-0.1-1.7-0.5-3.4-1.1-4.9c5.8-4.7,7.5-12.2,4.3-20.5l-0.3-0.7c-2-5.3-3.8-9.9-2.3-14.5c1.7-5.1,6-7.3,9.4-8.3l0.4-0.1
	c10,5.5,18.2,13.9,23.5,24.1C300.7,119.1,296.7,119.7,293,121.5z"/>
<path class="st0" d="M253.7,64.6c-44.9,0-81.3,36.4-81.3,81.3s36.4,81.3,81.3,81.3c44.9,0,81.3-36.4,81.3-81.3
	S298.6,64.6,253.7,64.6z M253.7,216.9c-39.2,0-71.1-31.9-71.1-71.1s31.9-71.1,71.1-71.1c39.2,0,71.1,31.9,71.1,71.1
	S292.9,216.9,253.7,216.9z"/>
<path class="st0" d="M321.3,78.8c-7.6-7.7-17.4-13.3-26.2-15.1c-0.5-0.1-1.1,0.2-1.3,0.7c-0.2,0.5,0.1,1.1,0.6,1.3
	c8.3,3.8,16.4,9.5,23.3,16.5c7,7.1,12.7,15.2,16.4,23.6c0.2,0.4,0.6,0.7,1,0.7c0.1,0,0.2,0,0.3-0.1c0.5-0.2,0.9-0.7,0.7-1.3
	C334.3,96,329,86.6,321.3,78.8z"/>
<path class="st0" d="M212.8,225.8c-8.3-3.8-16.4-9.5-23.3-16.5c-7-7.1-12.7-15.2-16.4-23.6c-0.2-0.5-0.8-0.8-1.3-0.6
	c-0.5,0.2-0.9,0.7-0.7,1.3c1.9,9.3,7.2,18.7,14.9,26.5c7.6,7.7,17.4,13.3,26.2,15.1c0.1,0,0.1,0,0.2,0c0.5,0,0.9-0.3,1-0.8
	C213.6,226.7,213.3,226.1,212.8,225.8z"/>
</svg>
