<!-- Generator: Adobe Illustrator 22.0.1, SVG Export Plug-In  -->
<svg version="1.1"
	 xmlns="http://www.w3.org/2000/svg" xmlns:xlink="http://www.w3.org/1999/xlink" xmlns:a="http://ns.adobe.com/AdobeSVGViewerExtensions/3.0/"
	 x="0px" y="0px" width="160.7px" height="158.8px" viewBox="0 0 160.7 158.8" style="enable-background:new 0 0 160.7 158.8;"
	 xml:space="preserve">
<style type="text/css">
	.st0{fill:#EF4E65;stroke:#8C2738;stroke-width:4;stroke-miterlimit:10;}
	.st1{fill:none;stroke:#8C2738;stroke-width:4;stroke-linecap:round;stroke-linejoin:round;stroke-miterlimit:10;}
	.st2{fill:#BA3E51;stroke:#8C2738;stroke-width:4;stroke-miterlimit:10;}
	.st3{fill:#BA3E51;}
	.st4{fill:#8C2738;}
	.st5{fill:#F18085;stroke:#8C2738;stroke-width:4;stroke-linecap:round;stroke-linejoin:round;stroke-miterlimit:10;}
	
		.st6{fill-rule:evenodd;clip-rule:evenodd;fill:#FAD1CD;stroke:#8C2738;stroke-width:4;stroke-linecap:round;stroke-linejoin:round;stroke-miterlimit:10;}
	.st7{fill:none;stroke:#8C2738;stroke-width:3;stroke-linecap:round;stroke-linejoin:round;stroke-miterlimit:10;}
</style>
<defs>
</defs>
<g>
	<circle class="st0" cx="79.4" cy="79.4" r="77.4"/>
	<path class="st1" d="M30.5,134.8c-0.1-0.4-0.2-0.9-0.2-1.3c0-2.7,2.2-5,5-5c1.3,0,2.5,0.5,3.4,1.3l0,0c-1.3-1.4-2.2-3.3-2.2-5.3
		c0-4.2,3.4-7.7,7.7-7.7s7.7,3.4,7.7,7.7c0,1-0.2,2.3-0.5,3.2l0,0.1c0.9-3,3.7-5.2,7-5.2c4,0,7.3,3.3,7.3,7.3c0,1.9-0.7,3.6-1.9,4.9
		"/>
	<line class="st1" x1="16.7" y1="134.8" x2="30.3" y2="134.8"/>
	<line class="st1" x1="69" y1="134.8" x2="63.9" y2="134.8"/>
	<path class="st1" d="M101.9,48.7c-0.1-0.4-0.2-0.9-0.2-1.3c0-2.7,2.2-5,5-5c1.3,0,2.5,0.5,3.4,1.3l0,0c-1.3-1.4-2.2-3.3-2.2-5.3
		c0-4.2,3.4-7.7,7.7-7.7c4.2,0,7.7,3.4,7.7,7.7c0,1-0.2,2.3-0.5,3.2l0,0.1c0.9-3,3.7-5.2,7-5.2c4,0,7.3,3.3,7.3,7.3"/>
	<path class="st1" d="M122.8,108.3c-1.7-1.6-2.7-3.9-2.7-6.5c0-5,4-9,9-9c5,0,9,4,9,9c0,1.6-0.4,3-1.1,4.3l0,0
		c1-2.5,3.5-4.3,6.3-4.3c3.8,0,6.8,3,6.8,6.8"/>
	<path class="st1" d="M150.2,108.7"/>
	<line class="st1" x1="123" y1="108.6" x2="118.5" y2="108.6"/>
	<path class="st1" d="M33.8,38.3c-1.7-1.6-2.7-3.9-2.7-6.5c0-5,4-9,9-9s9,4,9,9c0,1.6-0.4,3-1.1,4.3l0,0c1-2.5,3.5-4.3,6.3-4.3
		c3.8,0,6.8,3,6.8,6.8"/>
	<line class="st1" x1="65.7" y1="38.6" x2="61.3" y2="38.6"/>
	<path class="st2" d="M86,77.3h3.7c3.5,0,6.3-2.8,6.3-6.3v0c0-3.5-2.8-6.3-6.3-6.3h-2.5c-0.7,0-1.3,0.6-1.3,1.3V77.3z"/>
	<g>
		<circle class="st3" cx="90.4" cy="99.4" r="4.5"/>
		<path class="st4" d="M90.4,97c1.4,0,2.5,1.1,2.5,2.5s-1.1,2.5-2.5,2.5c-1.4,0-2.5-1.1-2.5-2.5S89,97,90.4,97 M90.4,93
			c-3.6,0-6.5,2.9-6.5,6.5s2.9,6.5,6.5,6.5s6.5-2.9,6.5-6.5S93.9,93,90.4,93L90.4,93z"/>
	</g>
	<line class="st1" x1="87.5" y1="95.6" x2="83.9" y2="88"/>
	<line class="st1" x1="93.6" y1="95.6" x2="97.3" y2="88"/>
	<path class="st5" d="M47.1,64.8l11.6,8.1l41.9-2.5c2.1-0.1,4.1,1.3,4.5,3.4c0.2,0.9,0.3,2.1,0.3,3.5c0,8.3-2.7,8.3-2.7,8.3
		s-23.3,0-31.2-0.6c-15.7-1.1-26-6.9-26-6.9s-1.6-8.3-1.2-12.1C44.5,64.7,46,64,47.1,64.8z"/>
	<line class="st1" x1="80.8" y1="59.9" x2="80.8" y2="85.4"/>
	<line class="st1" x1="97.5" y1="59.9" x2="97.5" y2="85.4"/>
	<path class="st6" d="M69.3,56.4c-1.7,0.2-1.7,2.1,0,2.3c9.5,1.1,23.6,2.5,31.3,2.5c3.6,0,5.3-1.6,5.3-3.6c0-2-1.7-3.6-5.3-3.6
		C92.9,53.9,78.8,55.3,69.3,56.4z"/>
	<path class="st6" d="M37.8,75.9c-0.8,0.1-0.8,1.6,0,1.8c4.6,0.8,9.8,1.9,13.5,1.9c1.7,0,2.6-1.2,2.6-2.7c0-1.5-0.8-2.7-2.6-2.7
		C47.6,74.1,42.4,75.1,37.8,75.9z"/>
	<path class="st6" d="M69.3,84.3c-1.7,0.2-1.7,2.1,0,2.3c9.5,1.1,23.6,2.5,31.3,2.5c3.6,0,5.3-1.6,5.3-3.6c0-2-1.7-3.6-5.3-3.6
		C92.9,81.8,78.8,83.2,69.3,84.3z"/>
	<line class="st1" x1="106.4" y1="78.2" x2="112" y2="78.2"/>
	<line class="st1" x1="111" y1="66.7" x2="111" y2="89.7"/>
	<path class="st1" d="M27.9,88.6c0.3-0.8,0.5-1.6,0.5-2.5c0-3.5-2.8-6.3-6.3-6.3c-2,0-3.8,1-5,2.5c-0.7-3.8-3.6-6.2-7.6-6.2
		c-2.8,0-5.2,1.4-6.7,3.6"/>
	<line class="st1" x1="150.4" y1="108.8" x2="158.7" y2="108.8"/>
	<path class="st7" d="M107.8,120.6c-2.7-0.5-5.2,1.3-5.7,4"/>
	<path class="st7" d="M102.1,124.6c0.5-2.7-1.3-5.2-4-5.7"/>
	<path class="st7" d="M107.8,120.6c-2.7-0.5-5.2,1.3-5.7,4"/>
	<path class="st7" d="M102.1,124.6c0.5-2.7-1.3-5.2-4-5.7"/>
	<path class="st7" d="M41.8,98.1c-2.7,0.4-4.5,2.9-4,5.6"/>
	<path class="st7" d="M37.7,103.7c-0.4-2.7-2.9-4.5-5.6-4"/>
	<path class="st7" d="M41.8,98.1c-2.7,0.4-4.5,2.9-4,5.6"/>
	<path class="st7" d="M37.7,103.7c-0.4-2.7-2.9-4.5-5.6-4"/>
</g>
</svg>