<?xml version="1.0" encoding="utf-8"?>
<!-- Generator: Adobe Illustrator 23.0.2, SVG Export Plug-In . SVG Version: 6.00 Build 0)  -->
<svg version="1.1" xmlns="http://www.w3.org/2000/svg" xmlns:xlink="http://www.w3.org/1999/xlink" x="0px" y="0px"
	 viewBox="0 0 171 159.7" style="enable-background:new 0 0 171 159.7;" xml:space="preserve">
<style type="text/css">
	.st0{display:none;}
	.st1{display:inline;}
	.st2{fill:#51BB7B;stroke:#257048;stroke-width:4;stroke-miterlimit:10;}
	.st3{fill:none;stroke:#257048;stroke-width:4;stroke-linecap:round;stroke-linejoin:round;stroke-miterlimit:10;}
	
		.st4{fill-rule:evenodd;clip-rule:evenodd;fill:#D4EAD9;stroke:#257048;stroke-width:4;stroke-linecap:round;stroke-linejoin:round;stroke-miterlimit:10;}
	.st5{fill:#257048;}
	
		.st6{fill-rule:evenodd;clip-rule:evenodd;fill:#ADD9B8;stroke:#257048;stroke-width:4;stroke-linecap:round;stroke-linejoin:round;stroke-miterlimit:10;}
	.st7{fill:#409564;stroke:#257048;stroke-width:4;stroke-linecap:round;stroke-linejoin:round;stroke-miterlimit:10;}
	.st8{fill:#ADD9B8;stroke:#257048;stroke-width:4;stroke-linecap:round;stroke-linejoin:round;stroke-miterlimit:10;}
	.st9{fill:none;stroke:#257048;stroke-width:3;stroke-linecap:round;stroke-linejoin:round;stroke-miterlimit:10;}
	.st10{fill:#338199;}
	.st11{fill:#005270;}
	.st12{fill:none;stroke:#005270;stroke-width:50.3869;stroke-linecap:round;stroke-linejoin:round;stroke-miterlimit:10;}
	.st13{fill:#50C6DB;stroke:#005270;stroke-width:50.3869;stroke-linecap:round;stroke-linejoin:round;stroke-miterlimit:10;}
	.st14{fill:#D6EEF1;}
	.st15{fill:#B1E0E9;}
	.st16{fill:#6CC4D9;}
	.st17{fill:none;stroke:#005270;stroke-width:50.3865;stroke-linecap:round;stroke-linejoin:round;stroke-miterlimit:10;}
</style>
<g id="Layer_1" class="st0">
	<g class="st1">
		<circle class="st2" cx="89.7" cy="79.9" r="77.9"/>
		<path class="st3" d="M32.9,58.4c-0.3-0.8-0.5-1.6-0.5-2.6c0-3.5,2.8-6.3,6.3-6.3c2,0,3.9,1,5,2.5c0.7-3.8,3.6-6.3,7.6-6.3
			c2.8,0,5.3,1.4,6.7,3.6"/>
		<path class="st3" d="M125,103.2c-0.1-0.4-0.2-0.9-0.2-1.3c0-2.8,2.2-5,5-5c1.3,0,2.5,0.5,3.4,1.3l0,0c-1.3-1.4-2.2-3.3-2.2-5.4
			c0-4.3,3.5-7.7,7.7-7.7s7.7,3.5,7.7,7.7c0,1.1-0.2,2.3-0.5,3.2v0.1c0.9-3,3.7-5.2,7-5.2c4,0,7.3,3.3,7.3,7.3
			c0,1.9-0.7,3.6-1.9,4.9"/>
		<line class="st3" x1="121.5" y1="103.2" x2="124.8" y2="103.2"/>
		<line class="st3" x1="169" y1="103.3" x2="158.6" y2="103.3"/>
		<path class="st3" d="M22.1,84.7c-1.7-1.6-2.7-3.9-2.7-6.5c0-5,4.1-9.1,9.1-9.1s9.1,4.1,9.1,9.1c0,1.6-0.4,3-1.1,4.3l0,0
			c1-2.6,3.5-4.4,6.4-4.4c3.8,0,6.9,3.1,6.9,6.9"/>
		<line class="st3" x1="54.2" y1="85.1" x2="49.7" y2="85.1"/>
		<line class="st3" x1="22.3" y1="85" x2="2" y2="85"/>
		<path class="st4" d="M89.8,25.5c-20.6,0-37.4,17.9-37.4,36.2c0,26.1,25.3,46.1,34.3,52.3h6.2c9-6.3,34.3-26.2,34.3-52.3
			C127.2,43.4,110.5,25.5,89.8,25.5z"/>
		<path class="st3" d="M60.3,52.7c-0.9,2.8-1.4,5.9-1.4,9c0,8.5,2.7,16.3,6.6,23.3"/>
		<path class="st3" d="M67,41.2c-1.8,2-3.4,4.3-4.6,6.7"/>
		<path class="st5" d="M89.8,121.3c-1.6,0-2.9,1.3-2.9,2.9v3.3h5.8v-3.3C92.7,122.6,91.4,121.3,89.8,121.3z"/>
		<circle class="st5" cx="89.8" cy="119.3" r="2"/>
		<path class="st6" d="M93,114c5.5-8.3,16-27.3,16-51.6c0-18.8-8.6-37.3-19.2-37.3S70.6,43.6,70.6,62.4c0,24.2,10.5,43.3,16,51.6H93
			z"/>
		<polygon class="st7" points="99,115.7 80.6,115.7 78.9,107.8 100.8,107.8 		"/>
		<path class="st8" d="M96.1,145.1H83.5c-1.6,0-2.9-1.3-2.9-2.9V125H99v17.1C99,143.8,97.7,145.1,96.1,145.1z"/>
		<line class="st3" x1="83.7" y1="115.7" x2="83.7" y2="125"/>
		<line class="st3" x1="96" y1="115.7" x2="96" y2="125"/>
		<path class="st8" d="M99.7,130.2H80c-0.6,0-1-0.5-1-1V126c0-0.6,0.5-1,1-1h19.7c0.6,0,1,0.5,1,1v3.1
			C100.7,129.7,100.2,130.2,99.7,130.2z"/>
		<line class="st3" x1="92.8" y1="135" x2="98" y2="135"/>
		<line class="st3" x1="94.9" y1="140.2" x2="98" y2="140.2"/>
		<polygon class="st8" points="99.2,15.2 89.7,11.5 89.7,18.8 		"/>
		<line class="st3" x1="89.7" y1="24" x2="89.7" y2="11.5"/>
		<path class="st9" d="M60.9,110.1c-2.7,0.6-4.4,3.2-3.8,5.8"/>
		<path class="st9" d="M57.1,116c-0.6-2.7-3.2-4.4-5.8-3.8"/>
		<path class="st9" d="M70.1,117.5c-2.1-0.5-4.2,0.8-4.7,2.9"/>
		<path class="st9" d="M65.4,120.4c0.5-2.1-0.8-4.2-2.9-4.7"/>
		<path class="st9" d="M146.3,53.5c-2.7-0.5-5.2,1.3-5.7,4"/>
		<path class="st9" d="M140.6,57.5c0.5-2.7-1.3-5.2-4-5.7"/>
		<path class="st9" d="M146.3,53.5c-2.7-0.5-5.2,1.3-5.7,4"/>
		<path class="st9" d="M140.6,57.5c0.5-2.7-1.3-5.2-4-5.7"/>
	</g>
</g>
<g id="Layer_2">
	<g id="Layer_5">
		<g>
			<g>
				<g>
					<circle class="st10" cx="90" cy="80" r="77.7"/>
					<path class="st11" d="M90,159.7c-10.8,0-21.2-2.1-31-6.3c-9.5-4-18-9.8-25.3-17.1S20.6,120.5,16.6,111
						c-4.2-9.8-6.3-20.3-6.3-31s2.1-21.2,6.3-31c4-9.5,9.8-18,17.1-25.3C41,16.3,49.5,10.6,59,6.6c9.8-4.2,20.3-6.3,31-6.3
						s21.2,2.1,31,6.3c9.5,4,18,9.8,25.3,17.1c7.3,7.3,13.1,15.8,17.1,25.3c4.2,9.8,6.3,20.3,6.3,31s-2.1,21.2-6.3,31
						c-4,9.5-9.8,18-17.1,25.3c-7.3,7.3-15.8,13.1-25.3,17.1C111.2,157.6,100.8,159.7,90,159.7z M90,4.3c-10.2,0-20.1,2-29.5,5.9
						c-9,3.8-17.1,9.3-24.1,16.2s-12.4,15-16.2,24.1c-3.9,9.3-5.9,19.2-5.9,29.5s2,20.1,5.9,29.5c3.8,9,9.3,17.1,16.2,24.1
						c7,7,15,12.4,24.1,16.2c9.3,3.9,19.2,5.9,29.5,5.9c10.2,0,20.1-2,29.5-5.9c9-3.8,17.1-9.3,24.1-16.2c7-7,12.4-15,16.2-24.1
						c3.9-9.3,5.9-19.2,5.9-29.5s-2-20.1-5.9-29.5c-3.8-9-9.3-17.1-16.2-24.1c-7-7-15-12.4-24.1-16.2C110.2,6.3,100.3,4.3,90,4.3z"
						/>
				</g>
			</g>
			<g>
				<path class="st11" d="M40.2,67.4c-0.9,0-1.7-0.6-1.9-1.5c-0.1-0.5-0.2-1-0.2-1.6c0-2.9,2.1-5.3,4.9-5.8
					c-0.1-0.4-0.1-0.8-0.1-1.2c0-4.4,3.6-8,8-8c3.5,0,6.4,2.2,7.5,5.3c1-0.5,2.2-0.8,3.4-0.8c4.2,0,7.7,3.4,7.7,7.7
					c0,1.9-0.7,3.7-2,5.2c-0.7,0.8-2,0.9-2.8,0.1c-0.8-0.7-0.9-2-0.1-2.8c0.6-0.7,0.9-1.5,0.9-2.4c0-2-1.6-3.6-3.6-3.6
					c-1.5,0-2.9,1-3.4,2.4c0,0,0,0,0,0c0,0.1,0,0.1-0.1,0.2c-0.3,1-1.4,1.6-2.4,1.4c-1-0.3-1.7-1.3-1.5-2.4l0-0.1
					c0-0.1,0.1-0.2,0.1-0.3c0.2-0.4,0.3-1,0.3-1.7c0-2.2-1.8-4-4-4c-2.2,0-4,1.8-4,4c0,1,0.4,2,1.1,2.8c0.4,0.4,0.6,0.9,0.6,1.5
					c0,0.6-0.3,1.1-0.7,1.4l0,0c-0.8,0.7-1.9,0.6-2.7-0.1c-0.3-0.3-0.8-0.5-1.3-0.5c-1,0-1.8,0.8-1.8,1.8c0,0.2,0,0.3,0.1,0.5
					c0.3,1.1-0.3,2.2-1.4,2.5C40.6,67.4,40.4,67.4,40.2,67.4z"/>
			</g>
			<g>
				<path class="st11" d="M40.1,67.4h-9.8c-1.1,0-2-0.9-2-2s0.9-2,2-2h9.8c1.1,0,2,0.9,2,2S41.2,67.4,40.1,67.4z"/>
			</g>
			<g>
				<path class="st12" d="M130.5,57.2"/>
			</g>
			<g>
				<path class="st12" d="M115.5,57.2"/>
			</g>
			<g>
				<g>
					<path class="st13" d="M144.9,68.1"/>
				</g>
			</g>
			<g>
				<g>
					<path class="st13" d="M144.9,91.9"/>
				</g>
			</g>
			<g>
				<g>
					<polyline class="st14" points="102.5,98.5 102.5,71 78.7,71 78.7,98.5 					"/>
				</g>
				<g>
					<path class="st11" d="M102.5,100.5c-1.1,0-2-0.9-2-2V73H80.7v25.4c0,1.1-0.9,2-2,2c-1.1,0-2-0.9-2-2V71c0-1.1,0.9-2,2-2h23.9
						c1.1,0,2,0.9,2,2v27.4C104.5,99.6,103.6,100.5,102.5,100.5z"/>
				</g>
			</g>
			<g>
				<g>
					<path class="st15" d="M57.2,120.4c3.5,0,6.2,2.6,6.9,5.8h2.3l-0.1-38.2V76.6H50.7v48.1C51.8,122.2,54.5,120.4,57.2,120.4z"/>
				</g>
			</g>
			<g>
				<g>
					<polygon class="st14" points="63.7,109 50.9,96.9 50.2,87.5 63.7,98.5 					"/>
				</g>
			</g>
			<g>
				<g>
					<path class="st14" d="M56.1,120.5c0.4-0.1,0.7-0.1,1.1-0.1c3,0,5.4,1.8,6.5,4.4v-7.7l-13.5-10.9l0.7,9.4L56.1,120.5z"/>
				</g>
			</g>
			<g>
				<g>
					<path class="st15" d="M119.3,124.5c-0.2-3.8,3.4-7.1,7.1-7.1c0.9,0,1.8,0.2,2.6,0.5V76.6h-15.7v11.5l-0.1,38.2h6.4
						C119.4,125.7,119.4,125.1,119.3,124.5z"/>
				</g>
			</g>
			<g>
				<g>
					<polygon class="st14" points="116,109 128.8,96.9 129.5,87.5 116,98.5 					"/>
				</g>
			</g>
			<g>
				<g>
					<path class="st14" d="M119.3,124.5c-0.2-3.8,3.4-7.1,7.1-7.1c0.7,0,1.3,0.1,2,0.3l0.8-0.7l0.7-9.4l-13.5,10.9v9.5h1.1l2.1-2
						C119.4,125.6,119.4,125,119.3,124.5z"/>
				</g>
			</g>
			<g>
				<g>
					<path class="st11" d="M50.9,79.3c-1.1,0-2-0.9-2-2V71c0-1.1,0.9-2,2-2c1.1,0,2,0.9,2,2v6.3C52.9,78.4,52,79.3,50.9,79.3z"/>
				</g>
			</g>
			<g>
				<g>
					<path class="st11" d="M114.6,90.1c1.1,0,2-0.9,2-2v-9.5h11.7v39.1c1.7,0.5,3.1,1.5,4,3v-44c0-1.1-0.9-2-2-2h-15.7
						c-1.1,0-2,0.9-2,2v11.5C112.6,89.2,113.5,90.1,114.6,90.1z"/>
				</g>
				<g>
					<path class="st11" d="M119.3,124.5c0-0.1,0-0.2,0-0.3h-4.8c-1.1,0-2,0.9-2,2s0.9,2,2,2h6C119.8,127.1,119.4,125.9,119.3,124.5z
						"/>
				</g>
			</g>
			<g>
				<g>
					<path class="st11" d="M50.1,127.5c-0.1-2.2,1.1-4.3,2.8-5.6V78.6h11.7v9.5c0,1.1,0.9,2,2,2c1.1,0,2-0.9,2-2V76.6
						c0-1.1-0.9-2-2-2H50.9c-1.1,0-2,0.9-2,2v49.7c0,0.8,0.5,1.6,1.2,1.9C50.1,127.9,50.1,127.7,50.1,127.5z"/>
				</g>
				<g>
					<path class="st11" d="M66.7,124.2h-3.3c0.5,1,0.8,2.1,0.9,3.3c0,0.2,0,0.5,0,0.7h2.4c1.1,0,2-0.9,2-2S67.8,124.2,66.7,124.2z"
						/>
				</g>
			</g>
			<g>
				<g>
					<path class="st16" d="M111.5,88.1v4.3h-6v-4.3h-6v4.3h-6v-4.3h-6v4.3h-6v-4.3h-6v4.3h-6v-4.3h-6l0,36.7
						c0.2,0.5,0.3,0.9,0.4,1.4h53.3V88.1H111.5z"/>
				</g>
				<g>
					<path class="st11" d="M119.3,124.5c0-0.5,0-1.1,0.1-1.6V88.1c0-1.1-0.9-2-2-2h-6c-1.1,0-2,0.9-2,2v2.3h-2v-2.3c0-1.1-0.9-2-2-2
						h-6c-1.1,0-2,0.9-2,2v2.3h-2v-2.3c0-1.1-0.9-2-2-2h-6c-1.1,0-2,0.9-2,2v2.3h-2v-2.3c0-1.1-0.9-2-2-2h-6c-1.1,0-2,0.9-2,2v2.3
						h-2v-2.3c0-1.1-0.9-2-2-2h-6c-0.5,0-1,0.2-1.4,0.6c-0.4,0.4-0.6,0.9-0.6,1.4l0,34c1.5,1.3,2.5,3.3,2.6,5.5c0,0.2,0,0.5,0,0.7
						h53.2c1.1,0,2-0.9,2-2v-0.6C119.4,125.3,119.3,124.9,119.3,124.5z M115.4,124.2H65.7l0-34.1h2v2.3c0,1.1,0.9,2,2,2h6
						c1.1,0,2-0.9,2-2v-2.3h2v2.3c0,1.1,0.9,2,2,2h6c1.1,0,2-0.9,2-2v-2.3h2v2.3c0,1.1,0.9,2,2,2h6c1.1,0,2-0.9,2-2v-2.3h2v2.3
						c0,1.1,0.9,2,2,2h6c1.1,0,2-0.9,2-2v-2.3h2L115.4,124.2L115.4,124.2z"/>
				</g>
			</g>
			<g>
				<g>
					<path class="st10" d="M92.8,113h-4.3c-3.8,0-6.8,3.1-6.8,6.8v6.4h18v-6.4C99.7,116.1,96.6,113,92.8,113z"/>
				</g>
				<g>
					<path class="st11" d="M101.7,128.2h-22V122c0-6.1,4.9-11,11-11s11,4.9,11,11V128.2z M83.7,124.2h14V122c0-3.8-3.1-7-7-7
						c-3.8,0-7,3.1-7,7L83.7,124.2L83.7,124.2z"/>
				</g>
			</g>
			<g>
				<g>
					<rect x="75.2" y="64.5" class="st16" width="30.9" height="6.5"/>
				</g>
				<g>
					<path class="st11" d="M106,73H75.2c-1.1,0-2-0.9-2-2v-6.5c0-1.1,0.9-2,2-2H106c1.1,0,2,0.9,2,2V71C108,72.1,107.1,73,106,73z
						 M77.2,69H104v-2.5H77.2V69z"/>
				</g>
			</g>
			<g>
				<g>
					<rect x="83.9" y="55.2" class="st15" width="13.5" height="9.3"/>
				</g>
				<g>
					<path class="st11" d="M97.3,66.5H83.9c-1.1,0-2-0.9-2-2v-9.3c0-1.1,0.9-2,2-2h13.5c1.1,0,2,0.9,2,2v9.3
						C99.3,65.6,98.4,66.5,97.3,66.5z M85.9,62.5h9.5v-5.3h-9.5V62.5z"/>
				</g>
			</g>
			<g>
				<g>
					<polyline class="st14" points="83.1,55.2 86.8,48.7 90.6,42.3 94.3,48.7 98,55.2 					"/>
				</g>
				<g>
					<path class="st11" d="M83.1,57.2c-0.3,0-0.7-0.1-1-0.3c-1-0.6-1.3-1.8-0.7-2.7l7.5-12.9c0.4-0.6,1-1,1.7-1s1.4,0.4,1.7,1
						l7.5,12.9c0.6,1,0.2,2.2-0.7,2.7s-2.2,0.2-2.7-0.7l-5.7-9.9l-5.7,9.9C84.5,56.8,83.8,57.2,83.1,57.2z"/>
				</g>
			</g>
			<g>
				<g>
					<path class="st17" d="M90.6,55.2"/>
				</g>
			</g>
			<g>
				<g>
					<path class="st11" d="M101.4,57.2H79.8c-1.1,0-2-0.9-2-2s0.9-2,2-2h21.5c1.1,0,2,0.9,2,2C103.4,56.3,102.5,57.2,101.4,57.2z"/>
				</g>
			</g>
			<g>
				<g>
					<circle class="st15" cx="90.6" cy="79.8" r="2.6"/>
				</g>
				<g>
					<path class="st11" d="M90.6,84.4c-2.6,0-4.7-2.1-4.7-4.7s2.1-4.7,4.7-4.7c2.6,0,4.7,2.1,4.7,4.7S93.1,84.4,90.6,84.4z
						 M90.6,79.1c-0.4,0-0.6,0.3-0.6,0.6c0,0.4,0.3,0.6,0.6,0.6c0.4,0,0.6-0.3,0.6-0.6C91.2,79.4,90.9,79.1,90.6,79.1z"/>
				</g>
			</g>
			<g>
				<g>
					<path class="st11" d="M56.2,78.6c-1.1,0-2-0.9-2-2V71c0-1.1,0.9-2,2-2s2,0.9,2,2v5.5C58.2,77.7,57.3,78.6,56.2,78.6z"/>
				</g>
			</g>
			<g>
				<g>
					<path class="st11" d="M61.4,78.6c-1.1,0-2-0.9-2-2V71c0-1.1,0.9-2,2-2c1.1,0,2,0.9,2,2v5.5C63.4,77.7,62.5,78.6,61.4,78.6z"/>
				</g>
			</g>
			<g>
				<g>
					<path class="st11" d="M66.7,78.6c-1.1,0-2-0.9-2-2V71c0-1.1,0.9-2,2-2s2,0.9,2,2v5.5C68.7,77.7,67.8,78.6,66.7,78.6z"/>
				</g>
			</g>
			<g>
				<g>
					<path class="st11" d="M114.5,78.6c-1.1,0-2-0.9-2-2V71c0-1.1,0.9-2,2-2c1.1,0,2,0.9,2,2v5.5C116.5,77.7,115.6,78.6,114.5,78.6z
						"/>
				</g>
			</g>
			<g>
				<g>
					<path class="st11" d="M119.7,78.6c-1.1,0-2-0.9-2-2V71c0-1.1,0.9-2,2-2s2,0.9,2,2v5.5C121.8,77.7,120.9,78.6,119.7,78.6z"/>
				</g>
			</g>
			<g>
				<g>
					<path class="st11" d="M125,78.6c-1.1,0-2-0.9-2-2V71c0-1.1,0.9-2,2-2s2,0.9,2,2v5.5C127,77.7,126.1,78.6,125,78.6z"/>
				</g>
			</g>
			<g>
				<g>
					<path class="st11" d="M130.3,78.6c-1.1,0-2-0.9-2-2V71c0-1.1,0.9-2,2-2s2,0.9,2,2v5.5C132.3,77.7,131.4,78.6,130.3,78.6z"/>
				</g>
			</g>
			<g>
				<g>
					<path class="st15" d="M108.6,106.2h-6.1v-4.7c0-1.3,1-2.3,2.3-2.3h1.5c1.3,0,2.3,1,2.3,2.3V106.2z"/>
				</g>
				<g>
					<path class="st11" d="M108.6,108.3h-6.1c-1.1,0-2-0.9-2-2v-3.9c0-2.8,2.3-5.1,5.1-5.1c2.8,0,5.1,2.3,5.1,5.1v3.9
						C110.6,107.4,109.7,108.3,108.6,108.3z M104.5,104.2h2.1v-1.9c0-0.6-0.5-1.1-1.1-1.1c-0.6,0-1.1,0.5-1.1,1.1V104.2z"/>
				</g>
			</g>
			<g>
				<g>
					<path class="st15" d="M72.5,106.2h6.1v-4.7c0-1.3-1-2.3-2.3-2.3h-1.5c-1.3,0-2.3,1-2.3,2.3L72.5,106.2L72.5,106.2z"/>
				</g>
				<g>
					<path class="st11" d="M78.7,108.3h-6.1c-1.1,0-2-0.9-2-2v-3.9c0-2.8,2.3-5.1,5.1-5.1s5.1,2.3,5.1,5.1v3.9
						C80.7,107.4,79.8,108.3,78.7,108.3z M74.6,104.2h2.1v-1.9c0-0.6-0.5-1.1-1.1-1.1s-1.1,0.5-1.1,1.1V104.2z"/>
				</g>
			</g>
			<g>
				<g>
					<path class="st15" d="M86.9,106.2h6.2v-3.9c-0.1-1.7-1.5-3.1-3.2-3.1l0,0c-1.7,0-3.1,1.4-3.1,3.1V106.2z"/>
				</g>
				<g>
					<path class="st11" d="M93.1,108.3h-6.2c-1.1,0-2-0.9-2-2v-3.9c0-2.8,2.3-5.1,5.1-5.1c2.7,0,5,2.2,5.2,5c0,0,0,0.1,0,0.1v3.9
						C95.1,107.4,94.2,108.3,93.1,108.3z M88.9,104.2h2.2v-1.8c-0.1-0.6-0.6-1.1-1.2-1.1c-0.6,0-1.1,0.5-1.1,1.1V104.2z"/>
				</g>
			</g>
			<g>
				<g>
					<path class="st11" d="M63.7,100.7c-0.5,0-1-0.2-1.4-0.6L49.5,87.3c-0.8-0.8-0.8-2.1,0-2.8c0.8-0.8,2.1-0.8,2.8,0l12.8,12.8
						c0.8,0.8,0.8,2.1,0,2.8C64.7,100.5,64.2,100.7,63.7,100.7z"/>
				</g>
			</g>
			<g>
				<g>
					<path class="st11" d="M63.7,111c-0.5,0-1-0.2-1.4-0.6L49.5,97.7c-0.8-0.8-0.8-2.1,0-2.8c0.8-0.8,2.1-0.8,2.8,0l12.8,12.8
						c0.8,0.8,0.8,2.1,0,2.8C64.7,110.9,64.2,111,63.7,111z"/>
				</g>
			</g>
			<g>
				<g>
					<path class="st11" d="M63.7,121.4c-0.5,0-1-0.2-1.4-0.6l-12.8-12.8c-0.8-0.8-0.8-2.1,0-2.8c0.8-0.8,2.1-0.8,2.8,0L65.1,118
						c0.8,0.8,0.8,2.1,0,2.8C64.7,121.2,64.2,121.4,63.7,121.4z"/>
				</g>
			</g>
			<g>
				<g>
					<path class="st11" d="M57.1,120.4l-4.8-4.8c-0.8-0.8-2.1-0.8-2.8,0c-0.8,0.8-0.8,2.1,0,2.8l3.4,3.4
						C54.1,121,55.6,120.4,57.1,120.4z"/>
				</g>
			</g>
			<g>
				<g>
					<path class="st11" d="M117.5,100.7c-0.5,0-1-0.2-1.4-0.6c-0.8-0.8-0.8-2.1,0-2.8l12.8-12.8c0.8-0.8,2.1-0.8,2.8,0
						c0.8,0.8,0.8,2.1,0,2.8l-12.8,12.8C118.5,100.5,118,100.7,117.5,100.7z"/>
				</g>
			</g>
			<g>
				<g>
					<path class="st11" d="M117.5,111c-0.5,0-1-0.2-1.4-0.6c-0.8-0.8-0.8-2.1,0-2.8l12.8-12.8c0.8-0.8,2.1-0.8,2.8,0
						c0.8,0.8,0.8,2.1,0,2.8l-12.8,12.8C118.5,110.9,118,111,117.5,111z"/>
				</g>
			</g>
			<g>
				<g>
					<path class="st11" d="M117.5,121.4c-0.5,0-1-0.2-1.4-0.6c-0.8-0.8-0.8-2.1,0-2.8l12.8-12.8c0.8-0.8,2.1-0.8,2.8,0
						c0.8,0.8,0.8,2.1,0,2.8l-12.8,12.8C118.5,121.2,118,121.4,117.5,121.4z"/>
				</g>
			</g>
			<g>
				<g>
					<path class="st11" d="M131,119.1l0.7-0.7c0.8-0.8,0.8-2.1,0-2.8c-0.8-0.8-2.1-0.8-2.8,0l-1.8,1.8
						C128.6,117.6,130,118.2,131,119.1z"/>
				</g>
				<g>
					<path class="st11" d="M119.4,125.2c-0.5,0.8-0.4,1.8,0.3,2.4c0.2,0.2,0.4,0.4,0.7,0.5C119.9,127.2,119.5,126.2,119.4,125.2z"/>
				</g>
			</g>
			<g>
				<g>
					<path class="st11" d="M90.6,44.3c-1.1,0-2-0.9-2-2v-9.7c0-1.1,0.9-2,2-2s2,0.9,2,2v9.7C92.6,43.4,91.7,44.3,90.6,44.3z"/>
				</g>
			</g>
			<g>
				<g>
					<polygon class="st11" points="90.6,35.5 90.6,32.6 95.3,34.1 100,35.5 95.3,37 90.6,38.5 					"/>
				</g>
				<g>
					<path class="st11" d="M90.6,40.5c-0.4,0-0.8-0.1-1.2-0.4c-0.5-0.4-0.8-1-0.8-1.6v-5.9c0-0.6,0.3-1.2,0.8-1.6
						c0.5-0.4,1.2-0.5,1.8-0.3l9.5,3c0.8,0.3,1.4,1,1.4,1.9c0,0.9-0.6,1.7-1.4,1.9l-9.5,3C91,40.5,90.8,40.5,90.6,40.5z M92.6,35.3
						v0.5l0.7-0.2L92.6,35.3z"/>
				</g>
			</g>
			<g>
				<g>
					<path class="st11" d="M74.7,125.7v-7.5c0-1.1-0.9-2-2-2s-2,0.9-2,2v7.5H74.7z"/>
				</g>
			</g>
			<g>
				<g>
					<path class="st11" d="M110.6,125.7v-7.5c0-1.1-0.9-2-2-2c-1.1,0-2,0.9-2,2v7.5H110.6z"/>
				</g>
			</g>
			<g>
				<g>
					<path class="st11" d="M153.9,50c-1.1,0-2-0.9-2-2c0-2.7-2.2-4.8-4.8-4.8c-2,0-3.8,1.2-4.5,3.1c-0.2,0.5-0.6,1-1.2,1.2
						c-0.5,0.2-1.2,0.1-1.7-0.1l0,0c-1-0.5-1.3-1.7-0.8-2.7c0.6-1,0.9-2.2,0.9-3.4c0-3.9-3.2-7-7-7s-7,3.2-7,7c0,1.9,0.8,3.7,2.1,5
						c0.8,0.8,0.8,2,0,2.8c-0.8,0.8-2,0.8-2.8,0c-2.2-2.1-3.3-4.9-3.3-7.9c0-6.1,5-11,11-11c5.6,0,10.3,4.2,11,9.7
						c1-0.4,2.2-0.7,3.4-0.7c4.9,0,8.8,4,8.8,8.8C155.9,49.1,155,50,153.9,50z"/>
				</g>
				<g>
					<path class="st11" d="M168.8,50h-14.9c-1.1,0-2-0.9-2-2s0.9-2,2-2h14.9c1.1,0,2,0.9,2,2C170.8,49.1,169.9,50,168.8,50z"/>
				</g>
				<g>
					<path class="st11" d="M126.6,49.9h-4.5c-1.1,0-2-0.9-2-2c0-1.1,0.9-2,2-2h4.5c1.1,0,2,0.9,2,2C128.6,49,127.7,49.9,126.6,49.9z
						"/>
				</g>
			</g>
			<g>
				<path class="st11" d="M156.8,132.7h-8.3c-1.1,0-2-0.9-2-2s0.9-2,2-2h8.3c1.1,0,2,0.9,2,2S157.9,132.7,156.8,132.7z"/>
			</g>
			<g>
				<g>
					<path class="st11" d="M40.1,102.2c-0.8,0-1.5-0.7-1.5-1.5v-4.8c0-0.8,0.7-1.5,1.5-1.5s1.5,0.7,1.5,1.5v4.8
						C41.6,101.5,40.9,102.2,40.1,102.2z"/>
				</g>
				<g>
					<path class="st11" d="M42.5,99.8h-4.8c-0.8,0-1.5-0.7-1.5-1.5c0-0.8,0.7-1.5,1.5-1.5h4.8c0.8,0,1.5,0.7,1.5,1.5
						C44,99.1,43.3,99.8,42.5,99.8z"/>
				</g>
			</g>
			<g>
				<g>
					<path class="st11" d="M35.2,119.4c-0.8,0-1.5-0.7-1.5-1.5v-4.8c0-0.8,0.7-1.5,1.5-1.5s1.5,0.7,1.5,1.5v4.8
						C36.7,118.7,36,119.4,35.2,119.4z"/>
				</g>
				<g>
					<path class="st11" d="M37.6,117h-4.8c-0.8,0-1.5-0.7-1.5-1.5s0.7-1.5,1.5-1.5h4.8c0.8,0,1.5,0.7,1.5,1.5
						C39.1,116.3,38.4,117,37.6,117z"/>
				</g>
			</g>
			<g>
				<g>
					<path class="st11" d="M50.7,39.8c-0.8,0-1.5-0.7-1.5-1.5v-4.8c0-0.8,0.7-1.5,1.5-1.5s1.5,0.7,1.5,1.5v4.8
						C52.2,39.1,51.5,39.8,50.7,39.8z"/>
				</g>
				<g>
					<path class="st11" d="M53.1,37.4h-4.8c-0.8,0-1.5-0.7-1.5-1.5c0-0.8,0.7-1.5,1.5-1.5h4.8c0.8,0,1.5,0.7,1.5,1.5
						C54.6,36.7,53.9,37.4,53.1,37.4z"/>
				</g>
			</g>
			<g>
				<g>
					<path class="st11" d="M142.7,91.4c-0.8,0-1.5-0.7-1.5-1.5v-4.8c0-0.8,0.7-1.5,1.5-1.5s1.5,0.7,1.5,1.5v4.8
						C144.2,90.8,143.5,91.4,142.7,91.4z"/>
				</g>
				<g>
					<path class="st11" d="M145.1,89h-4.8c-0.8,0-1.5-0.7-1.5-1.5s0.7-1.5,1.5-1.5h4.8c0.8,0,1.5,0.7,1.5,1.5
						C146.6,88.4,145.9,89,145.1,89z"/>
				</g>
			</g>
			<g>
				<g>
					<path class="st11" d="M84.9,21.8c-0.8,0-1.5-0.7-1.5-1.5v-4.8c0-0.8,0.7-1.5,1.5-1.5s1.5,0.7,1.5,1.5v4.8
						C86.4,21.1,85.7,21.8,84.9,21.8z"/>
				</g>
				<g>
					<path class="st11" d="M87.3,19.4h-4.8c-0.8,0-1.5-0.7-1.5-1.5c0-0.8,0.7-1.5,1.5-1.5h4.8c0.8,0,1.5,0.7,1.5,1.5
						C88.8,18.7,88.1,19.4,87.3,19.4z"/>
				</g>
			</g>
			<g>
				<g>
					<path class="st11" d="M109.1,50.2c-0.8,0-1.5-0.7-1.5-1.5v-4.8c0-0.8,0.7-1.5,1.5-1.5s1.5,0.7,1.5,1.5v4.8
						C110.6,49.5,109.9,50.2,109.1,50.2z"/>
				</g>
				<g>
					<path class="st11" d="M111.5,47.8h-4.8c-0.8,0-1.5-0.7-1.5-1.5s0.7-1.5,1.5-1.5h4.8c0.8,0,1.5,0.7,1.5,1.5
						S112.3,47.8,111.5,47.8z"/>
				</g>
			</g>
			<g>
				<g>
					<path class="st11" d="M153.9,101.2c-0.8,0-1.5-0.7-1.5-1.5v-4.8c0-0.8,0.7-1.5,1.5-1.5s1.5,0.7,1.5,1.5v4.8
						C155.4,100.5,154.8,101.2,153.9,101.2z"/>
				</g>
				<g>
					<path class="st11" d="M156.3,98.8h-4.8c-0.8,0-1.5-0.7-1.5-1.5s0.7-1.5,1.5-1.5h4.8c0.8,0,1.5,0.7,1.5,1.5
						C157.8,98.1,157.2,98.8,156.3,98.8z"/>
				</g>
			</g>
			<g>
				<g>
					<path class="st11" d="M143.6,110.9c-0.8,0-1.5-0.7-1.5-1.5v-4.8c0-0.8,0.7-1.5,1.5-1.5s1.5,0.7,1.5,1.5v4.8
						C145.1,110.3,144.5,110.9,143.6,110.9z"/>
				</g>
				<g>
					<path class="st11" d="M146,108.5h-4.8c-0.8,0-1.5-0.7-1.5-1.5s0.7-1.5,1.5-1.5h4.8c0.8,0,1.5,0.7,1.5,1.5
						S146.8,108.5,146,108.5z"/>
				</g>
			</g>
			<g>
				<g>
					<path class="st11" d="M28.7,89.6c-0.8,0-1.5-0.7-1.5-1.5v-6.7c0-0.8,0.7-1.5,1.5-1.5c0.8,0,1.5,0.7,1.5,1.5v6.7
						C30.3,88.9,29.6,89.6,28.7,89.6z"/>
				</g>
				<g>
					<path class="st11" d="M32.1,86.2h-6.7c-0.8,0-1.5-0.7-1.5-1.5s0.7-1.5,1.5-1.5h6.7c0.8,0,1.5,0.7,1.5,1.5S32.9,86.2,32.1,86.2z
						"/>
				</g>
			</g>
			<g>
				<g>
					<path class="st11" d="M148.5,75.9c-0.8,0-1.5-0.7-1.5-1.5v-6.7c0-0.8,0.7-1.5,1.5-1.5s1.5,0.7,1.5,1.5v6.7
						C150,75.2,149.3,75.9,148.5,75.9z"/>
				</g>
				<g>
					<path class="st11" d="M151.9,72.5h-6.7c-0.8,0-1.5-0.7-1.5-1.5s0.7-1.5,1.5-1.5h6.7c0.8,0,1.5,0.7,1.5,1.5
						S152.7,72.5,151.9,72.5z"/>
				</g>
			</g>
			<g>
				<g>
					<path class="st11" d="M112.5,29.8c-0.8,0-1.5-0.7-1.5-1.5v-6.7c0-0.8,0.7-1.5,1.5-1.5s1.5,0.7,1.5,1.5v6.7
						C114,29.1,113.3,29.8,112.5,29.8z"/>
				</g>
				<g>
					<path class="st11" d="M115.8,26.5h-6.7c-0.8,0-1.5-0.7-1.5-1.5c0-0.8,0.7-1.5,1.5-1.5h6.7c0.8,0,1.5,0.7,1.5,1.5
						C117.4,25.8,116.7,26.5,115.8,26.5z"/>
				</g>
			</g>
			<g>
				<g>
					<path class="st11" d="M72,38.4c-0.8,0-1.5-0.7-1.5-1.5v-6.7c0-0.8,0.7-1.5,1.5-1.5s1.5,0.7,1.5,1.5v6.7
						C73.5,37.7,72.8,38.4,72,38.4z"/>
				</g>
				<g>
					<path class="st11" d="M75.3,35h-6.7c-0.8,0-1.5-0.7-1.5-1.5c0-0.8,0.7-1.5,1.5-1.5h6.7c0.8,0,1.5,0.7,1.5,1.5
						C76.8,34.3,76.2,35,75.3,35z"/>
				</g>
			</g>
			<g>
				<path class="st13" d="M156.8,80"/>
			</g>
			<g>
				<path class="st11" d="M113.6,137.9c-0.9,0-1.7-0.6-1.9-1.5c-0.2-0.6-0.3-1.2-0.3-1.9c0-3.7,2.9-6.7,6.5-7
					c-0.1-0.7-0.2-1.4-0.2-2.1c0-5.4,4.4-9.7,9.7-9.7c4.5,0,8.2,3,9.4,7.1c1.4-0.8,3.1-1.3,4.8-1.3c5.1,0,9.3,4.2,9.3,9.3
					c0,1.1-0.9,2-2,2s-2-0.9-2-2c0-2.9-2.4-5.3-5.3-5.3c-2.2,0-4.2,1.4-5,3.5c0,0,0,0,0,0.1c0,0.1-0.1,0.2-0.1,0.2
					c-0.3,1-1.4,1.6-2.4,1.4c-1-0.3-1.7-1.3-1.5-2.4l0-0.1c0-0.1,0.1-0.2,0.1-0.3c0,0,0-0.1,0.1-0.1c0,0,0,0,0,0
					c0.2-0.6,0.3-1.4,0.3-2.3c0-3.1-2.6-5.7-5.7-5.7c-3.1,0-5.7,2.6-5.7,5.7c0,1.5,0.6,2.9,1.6,4c0.4,0.4,0.6,0.9,0.6,1.5
					c0,0.6-0.3,1.1-0.7,1.4l0,0c-0.8,0.7-1.9,0.6-2.7-0.1c-0.6-0.5-1.3-0.8-2-0.8c-1.6,0-3,1.3-3,3c0,0.3,0,0.5,0.1,0.8
					c0.3,1.1-0.3,2.2-1.4,2.5C113.9,137.8,113.7,137.9,113.6,137.9z"/>
			</g>
			<g>
				<g>
					<path class="st11" d="M43.4,141.2c-0.9,0-1.7-0.6-1.9-1.5c-0.2-0.6-0.3-1.2-0.3-1.9c0-3.7,2.9-6.7,6.5-7
						c-0.1-0.7-0.2-1.4-0.2-2.1c0-5.4,4.4-9.7,9.7-9.7c4.5,0,8.2,3,9.4,7.1c1.4-0.8,3.1-1.3,4.8-1.3c5.1,0,9.3,4.2,9.3,9.3
						c0,2.3-0.9,4.5-2.4,6.3c-0.7,0.8-2,0.9-2.8,0.1c-0.8-0.7-0.9-2-0.1-2.8c0.9-1,1.4-2.2,1.4-3.6c0-2.9-2.4-5.3-5.3-5.3
						c-2.2,0-4.2,1.4-5,3.5c0,0,0,0,0,0.1c0,0.1-0.1,0.2-0.1,0.2c-0.3,1-1.4,1.6-2.4,1.4c-1-0.3-1.7-1.3-1.5-2.4l0-0.1
						c0-0.1,0.1-0.2,0.1-0.3c0,0,0-0.1,0.1-0.1c0,0,0,0,0,0c0.2-0.6,0.3-1.4,0.3-2.3c0-3.1-2.6-5.7-5.7-5.7c-3.1,0-5.7,2.6-5.7,5.7
						c0,1.5,0.6,2.9,1.6,4c0.4,0.4,0.6,0.9,0.6,1.5c0,0.6-0.3,1.1-0.7,1.4l0,0c-0.8,0.7-1.9,0.6-2.7-0.1c-0.6-0.5-1.3-0.8-2-0.8
						c-1.6,0-3,1.3-3,3c0,0.3,0,0.5,0.1,0.8c0.3,1.1-0.3,2.2-1.4,2.5C43.8,141.2,43.6,141.2,43.4,141.2z"/>
				</g>
				<g>
					<path class="st11" d="M43.2,141.2H30.6c-1.1,0-2-0.9-2-2s0.9-2,2-2h12.6c1.1,0,2,0.9,2,2S44.3,141.2,43.2,141.2z"/>
				</g>
				<g>
					<path class="st11" d="M82.1,141.2h-5.2c-1.1,0-2-0.9-2-2s0.9-2,2-2h5.2c1.1,0,2,0.9,2,2S83.2,141.2,82.1,141.2z"/>
				</g>
			</g>
		</g>
	</g>
</g>
</svg>
