<!-- Generator: Adobe Illustrator 22.0.1, SVG Export Plug-In  -->
<svg version="1.1"
	 xmlns="http://www.w3.org/2000/svg" xmlns:xlink="http://www.w3.org/1999/xlink" xmlns:a="http://ns.adobe.com/AdobeSVGViewerExtensions/3.0/"
	 x="0px" y="0px" width="171px" height="159.7px" viewBox="0 0 171 159.7" style="enable-background:new 0 0 171 159.7;"
	 xml:space="preserve">
<style type="text/css">
	.st0{fill:#51BB7B;stroke:#257048;stroke-width:4;stroke-miterlimit:10;}
	.st1{fill:none;stroke:#257048;stroke-width:4;stroke-linecap:round;stroke-linejoin:round;stroke-miterlimit:10;}
	
		.st2{fill-rule:evenodd;clip-rule:evenodd;fill:#D4EAD9;stroke:#257048;stroke-width:4;stroke-linecap:round;stroke-linejoin:round;stroke-miterlimit:10;}
	
		.st3{fill-rule:evenodd;clip-rule:evenodd;fill:none;stroke:#257048;stroke-width:4;stroke-linecap:round;stroke-linejoin:round;stroke-miterlimit:10;}
	.st4{fill:#257048;}
	
		.st5{fill-rule:evenodd;clip-rule:evenodd;fill:#ADD9B8;stroke:#257048;stroke-width:4;stroke-linecap:round;stroke-linejoin:round;stroke-miterlimit:10;}
	.st6{fill:#409564;stroke:#257048;stroke-width:4;stroke-linecap:round;stroke-linejoin:round;stroke-miterlimit:10;}
	.st7{fill:#ADD9B8;stroke:#257048;stroke-width:4;stroke-linecap:round;stroke-linejoin:round;stroke-miterlimit:10;}
	.st8{fill:none;stroke:#257048;stroke-width:3;stroke-linecap:round;stroke-linejoin:round;stroke-miterlimit:10;}
</style>
<defs>
</defs>
<g>
	<circle class="st0" cx="89.7" cy="79.9" r="77.9"/>
	<path class="st1" d="M32.9,58.4c-0.3-0.8-0.5-1.6-0.5-2.6c0-3.5,2.8-6.3,6.3-6.3c2,0,3.9,1,5,2.5c0.7-3.8,3.6-6.3,7.6-6.3
		c2.8,0,5.3,1.4,6.7,3.6"/>
	<path class="st1" d="M125,103.2c-0.1-0.4-0.2-0.9-0.2-1.3c0-2.8,2.2-5,5-5c1.3,0,2.5,0.5,3.4,1.3l0,0c-1.3-1.4-2.2-3.3-2.2-5.4
		c0-4.3,3.5-7.7,7.7-7.7s7.7,3.5,7.7,7.7c0,1.1-0.2,2.3-0.5,3.2l0,0.1c0.9-3,3.7-5.2,7-5.2c4,0,7.3,3.3,7.3,7.3
		c0,1.9-0.7,3.6-1.9,4.9"/>
	<line class="st1" x1="121.5" y1="103.2" x2="124.8" y2="103.2"/>
	<line class="st1" x1="169" y1="103.3" x2="158.6" y2="103.3"/>
	<path class="st1" d="M22.1,84.7c-1.7-1.6-2.7-3.9-2.7-6.5c0-5,4.1-9.1,9.1-9.1s9.1,4.1,9.1,9.1c0,1.6-0.4,3-1.1,4.3l0,0
		c1-2.6,3.5-4.4,6.4-4.4c3.8,0,6.9,3.1,6.9,6.9"/>
	<line class="st1" x1="54.2" y1="85.1" x2="49.7" y2="85.1"/>
	<line class="st1" x1="22.3" y1="85" x2="2" y2="85"/>
	<path class="st2" d="M89.8,25.5c-20.6,0-37.4,17.9-37.4,36.2c0,26.1,25.3,46.1,34.3,52.3h6.2c9-6.3,34.3-26.2,34.3-52.3
		C127.2,43.4,110.5,25.5,89.8,25.5z"/>
	<path class="st3" d="M60.3,52.7c-0.9,2.8-1.4,5.9-1.4,9c0,8.5,2.7,16.3,6.6,23.3"/>
	<path class="st3" d="M67,41.2c-1.8,2-3.4,4.3-4.6,6.7"/>
	<path class="st4" d="M89.8,121.3c-1.6,0-2.9,1.3-2.9,2.9v3.3h5.8v-3.3C92.7,122.6,91.4,121.3,89.8,121.3z"/>
	<circle class="st4" cx="89.8" cy="119.3" r="2"/>
	<path class="st5" d="M93,114c5.5-8.3,16-27.3,16-51.6c0-18.8-8.6-37.3-19.2-37.3S70.6,43.6,70.6,62.4c0,24.2,10.5,43.3,16,51.6H93z
		"/>
	<polygon class="st6" points="99,115.7 80.6,115.7 78.9,107.8 100.8,107.8 	"/>
	<path class="st7" d="M96.1,145.1H83.5c-1.6,0-2.9-1.3-2.9-2.9V125H99v17.1C99,143.8,97.7,145.1,96.1,145.1z"/>
	<line class="st7" x1="83.7" y1="115.7" x2="83.7" y2="125"/>
	<line class="st7" x1="96" y1="115.7" x2="96" y2="125"/>
	<path class="st7" d="M99.7,130.2H80c-0.6,0-1-0.5-1-1V126c0-0.6,0.5-1,1-1h19.7c0.6,0,1,0.5,1,1v3.1
		C100.7,129.7,100.2,130.2,99.7,130.2z"/>
	<line class="st1" x1="92.8" y1="135" x2="98" y2="135"/>
	<line class="st1" x1="94.9" y1="140.2" x2="98" y2="140.2"/>
	<polygon class="st7" points="99.2,15.2 89.7,11.5 89.7,18.8 	"/>
	<line class="st7" x1="89.7" y1="24" x2="89.7" y2="11.5"/>
	<path class="st8" d="M60.9,110.1c-2.7,0.6-4.4,3.2-3.8,5.8"/>
	<path class="st8" d="M57.1,116c-0.6-2.7-3.2-4.4-5.8-3.8"/>
	<path class="st8" d="M70.1,117.5c-2.1-0.5-4.2,0.8-4.7,2.9"/>
	<path class="st8" d="M65.4,120.4c0.5-2.1-0.8-4.2-2.9-4.7"/>
	<path class="st8" d="M146.3,53.5c-2.7-0.5-5.2,1.3-5.7,4"/>
	<path class="st8" d="M140.6,57.5c0.5-2.7-1.3-5.2-4-5.7"/>
	<path class="st8" d="M146.3,53.5c-2.7-0.5-5.2,1.3-5.7,4"/>
	<path class="st8" d="M140.6,57.5c0.5-2.7-1.3-5.2-4-5.7"/>
</g>
</svg>