<!-- Generator: Adobe Illustrator 22.0.1, SVG Export Plug-In  -->
<svg version="1.1"
	 xmlns="http://www.w3.org/2000/svg" xmlns:xlink="http://www.w3.org/1999/xlink" xmlns:a="http://ns.adobe.com/AdobeSVGViewerExtensions/3.0/"
	 x="0px" y="0px" width="175.2px" height="158.8px" viewBox="0 0 175.2 158.8" style="enable-background:new 0 0 175.2 158.8;"
	 xml:space="preserve">
<style type="text/css">
	.st0{fill:#F0CE15;stroke:#9A7700;stroke-width:4;stroke-linecap:round;stroke-linejoin:round;stroke-miterlimit:10;}
	.st1{fill:none;stroke:#9A7700;stroke-width:4;stroke-linecap:round;stroke-linejoin:round;stroke-miterlimit:10;}
	.st2{fill:none;stroke:#9A7700;stroke-width:3;stroke-linecap:round;stroke-linejoin:round;stroke-miterlimit:10;}
	.st3{fill:#C3A028;stroke:#9A7700;stroke-width:4;stroke-linecap:round;stroke-linejoin:round;stroke-miterlimit:10;}
	.st4{fill:#F6E299;stroke:#9A7700;stroke-width:4;stroke-linecap:round;stroke-linejoin:round;stroke-miterlimit:10;}
	.st5{fill:#9A7700;}
</style>
<defs>
</defs>
<g>
	<circle class="st0" cx="95.8" cy="79.4" r="77.4"/>
	<path class="st1" d="M44.2,132.6c-0.1-0.4-0.2-0.9-0.2-1.3c0-2.7,2.2-5,5-5c1.3,0,2.5,0.5,3.4,1.3l0,0c-1.3-1.4-2.2-3.3-2.2-5.3
		c0-4.2,3.4-7.7,7.7-7.7s7.7,3.4,7.7,7.7c0,1-0.2,2.3-0.5,3.2l0,0.1c0.9-3,3.7-5.2,7-5.2c4,0,7.3,3.3,7.3,7.3c0,1.9-0.7,3.6-1.9,4.9
		"/>
	<line class="st1" x1="40.8" y1="132.6" x2="44.1" y2="132.6"/>
	<line class="st1" x1="82.8" y1="132.6" x2="77.6" y2="132.6"/>
	<path class="st1" d="M105.8,145.8c-0.1-0.4-0.2-0.9-0.2-1.3c0-2.7,2.2-5,5-5c1.3,0,2.5,0.5,3.4,1.3l0,0c-1.3-1.4-2.2-3.3-2.2-5.3
		c0-4.2,3.4-7.7,7.7-7.7c4.2,0,7.7,3.4,7.7,7.7c0,1-0.2,2.3-0.5,3.2l0,0.1c0.9-3,3.7-5.2,7-5.2c4,0,7.3,3.3,7.3,7.3"/>
	<line class="st1" x1="34.5" y1="97.2" x2="34.5" y2="103.9"/>
	<line class="st1" x1="37.9" y1="100.6" x2="31.2" y2="100.6"/>
	<path class="st1" d="M105.7,126.7c0.3-0.8,0.5-1.6,0.5-2.5c0-3.5-2.8-6.3-6.3-6.3c-2,0-3.8,1-5,2.5c-0.7-3.8-3.6-6.2-7.6-6.2
		c-2.8,0-5.2,1.4-6.7,3.6"/>
	<path class="st1" d="M44.2,132.6c-0.1-0.4-0.2-0.9-0.2-1.3c0-2.7,2.2-5,5-5c1.3,0,2.5,0.5,3.4,1.3l0,0c-1.3-1.4-2.2-3.3-2.2-5.3
		c0-4.2,3.4-7.7,7.7-7.7s7.7,3.4,7.7,7.7c0,1-0.2,2.3-0.5,3.2l0,0.1c0.9-3,3.7-5.2,7-5.2c4,0,7.3,3.3,7.3,7.3c0,1.9-0.7,3.6-1.9,4.9
		"/>
	<line class="st1" x1="29.4" y1="132.6" x2="44.1" y2="132.6"/>
	<line class="st1" x1="82.8" y1="132.6" x2="77.6" y2="132.6"/>
	<line class="st2" x1="141.1" y1="113.3" x2="141.1" y2="120"/>
	<line class="st2" x1="144.4" y1="116.7" x2="137.7" y2="116.7"/>
	<line class="st2" x1="43.1" y1="61.5" x2="43.1" y2="66.2"/>
	<line class="st2" x1="45.4" y1="63.9" x2="40.7" y2="63.9"/>
	<line class="st2" x1="153.9" y1="44.6" x2="153.9" y2="49.3"/>
	<line class="st2" x1="156.2" y1="47" x2="151.5" y2="47"/>
	<line class="st2" x1="147.6" y1="82.9" x2="147.6" y2="87.7"/>
	<line class="st2" x1="150" y1="85.3" x2="145.3" y2="85.3"/>
	<polygon class="st3" points="57.2,96.8 64.1,95.2 59.6,82.8 53.3,86.1 	"/>
	<polygon class="st3" points="73.1,96.3 64.4,101.5 55.8,77.9 65.8,76.3 	"/>
	<line class="st3" x1="57.8" y1="83.5" x2="67.8" y2="81.8"/>
	<line class="st3" x1="62.4" y1="95.9" x2="71.1" y2="90.8"/>
	<line class="st3" x1="60.1" y1="89.7" x2="69.4" y2="86.3"/>
	<path class="st3" d="M72.9,96.4l-1.7,9.1c0.3,0.7,1,1.1,1.6,0.9c11.8-4.2,18.9-5.8,31.6-15.9c9.6-7.6,24.4-14.4,24.4-14.4
		L72.9,96.4z"/>
	<path class="st4" d="M156.4,56.7l-7.1-1.6c-2.9-0.7-7.5-4.5-10.3-3.5L95.8,67.3c-5.5,2-11.6,1.6-16.8-1.2l-9.5-5
		c-0.8-0.4-1.7-0.5-2.6-0.2L55.8,65c-0.9,0.3-1.2,1.5-0.5,2.2l8.8,10.1c0.7,0.7,1.2,1.6,1.6,2.5l5.7,15.6c0.3,0.7,1,1.1,1.8,0.8
		l24.3-8.9l59.5-21.7C161.4,64.2,161,57.8,156.4,56.7z"/>
	<path class="st3" d="M149.3,55.1c-1.8-0.4-4.1-1.9-6.3-2.9l-4.3,1.6c-2.8,1-5,3.2-6.2,5.9c-0.4,1.1,0.6,2.2,1.7,1.8l16.5-6
		L149.3,55.1z"/>
	<line class="st1" x1="143.4" y1="58.1" x2="139.1" y2="53.7"/>
	<path class="st3" d="M79.1,66.1l-9.5-5c-0.8-0.4-1.7-0.5-2.6-0.2L55.8,65c-0.9,0.3-1.2,1.5-0.5,2.2l8.8,10.1l24.3-8.8
		C85.1,68.5,82,67.7,79.1,66.1z"/>
	<path class="st1" d="M101.9,85.8c-3.7-10.1-0.9-20.4,6.3-23"/>
	<path class="st1" d="M120.7,79c-3.7-10.1-0.9-20.4,6.3-23"/>
	<line class="st1" x1="104.9" y1="74.4" x2="106.9" y2="73.6"/>
	<path class="st3" d="M70,90c1.3-0.5,21.6-8.7,20.5-11.8s-22,3.7-23.3,4.2C68.1,85,69,87.5,70,90z"/>
	<path class="st3" d="M149.6,65.2c1.4,3.8,1.1,2.9,7.3,0.6c4.4-1.6,4-8-0.6-9.1l-5.9-1.4C148.8,58.3,148.4,61.8,149.6,65.2z"/>
	<path class="st5" d="M62.7,70.2c-0.8,0-1.6-0.5-1.9-1.3c-0.4-1,0.2-2.2,1.2-2.6c0.5-0.2,1.1-0.2,1.5,0.1c0.5,0.2,0.9,0.6,1,1.1
		c0.4,1-0.2,2.2-1.2,2.6C63.2,70.1,63,70.2,62.7,70.2z M63.1,69.1C63.1,69.1,63.1,69.1,63.1,69.1C63.1,69.1,63.1,69.1,63.1,69.1z"/>
	<path class="st5" d="M67.6,68.4c-0.8,0-1.6-0.5-1.9-1.3c-0.2-0.5-0.2-1.1,0.1-1.5c0.2-0.5,0.6-0.9,1.1-1c0.5-0.2,1.1-0.2,1.5,0.1
		c0.5,0.2,0.9,0.6,1,1.1c0.2,0.5,0.2,1.1-0.1,1.5c-0.2,0.5-0.6,0.9-1.1,1C68.1,68.4,67.8,68.4,67.6,68.4z M67.9,67.3
		C67.9,67.3,67.9,67.3,67.9,67.3C67.9,67.3,67.9,67.3,67.9,67.3z"/>
	<path class="st1" d="M105.8,145.8c-0.1-0.4-0.2-0.9-0.2-1.3c0-2.7,2.2-5,5-5c1.3,0,2.5,0.5,3.4,1.3l0,0c-1.3-1.4-2.2-3.3-2.2-5.3
		c0-4.2,3.4-7.7,7.7-7.7c4.2,0,7.7,3.4,7.7,7.7c0,1-0.2,2.3-0.5,3.2l0,0.1c0.9-3,3.7-5.2,7-5.2c4,0,7.3,3.3,7.3,7.3"/>
	<line class="st1" x1="140.8" y1="141" x2="150.1" y2="141"/>
	<polyline class="st4" points="5.3,114.7 33.9,104.7 34.9,114 41.8,105.4 44.6,118.6 57.2,97.1 53.2,86.1 30.4,78.4 37.9,89.3 
		25.3,87.5 30.7,94.9 2,105.6 	"/>
	<line class="st2" x1="110.7" y1="97.2" x2="110.7" y2="102"/>
	<line class="st2" x1="113" y1="99.6" x2="108.3" y2="99.6"/>
	<line class="st2" x1="112.7" y1="18.4" x2="112.7" y2="23.2"/>
	<line class="st2" x1="115.1" y1="20.8" x2="110.4" y2="20.8"/>
	<line class="st2" x1="164.9" y1="88.7" x2="164.9" y2="93.5"/>
	<line class="st2" x1="167.2" y1="91.1" x2="162.5" y2="91.1"/>
	<line class="st2" x1="96.8" y1="48.9" x2="96.8" y2="55.6"/>
	<line class="st2" x1="100.2" y1="52.3" x2="93.5" y2="52.3"/>
	<line class="st2" x1="65.8" y1="23.3" x2="65.8" y2="30"/>
	<line class="st2" x1="69.2" y1="26.7" x2="62.5" y2="26.7"/>
	<line class="st2" x1="124.5" y1="35.6" x2="124.5" y2="42.3"/>
	<line class="st2" x1="127.9" y1="38.9" x2="121.1" y2="38.9"/>
</g>
</svg>