<?xml version="1.0" encoding="utf-8"?>
<!-- Generator: Adobe Illustrator 20.0.0, SVG Export Plug-In . SVG Version: 6.00 Build 0)  -->
<svg version="1.1" id="Layer_1" xmlns="http://www.w3.org/2000/svg" xmlns:xlink="http://www.w3.org/1999/xlink" x="0px" y="0px"
	 viewBox="0 0 474 474" style="enable-background:new 0 0 474 474;" xml:space="preserve">
<style type="text/css">
	.st0{fill:#5D5F5F;}
</style>
<path class="st0" d="M236.2,115.3c-68.2,0-123.4,55.2-123.4,123.4s55.2,123.4,123.4,123.4s123.4-55.2,123.4-123.4
	S304.4,115.3,236.2,115.3z M203.2,132.8c10.4-3.3,21.6-5,33.1-5c12,0,23.6,1.9,34.4,5.5c-7.1,4.9-12.2,11.6-14.9,19.7
	c-4.7,14.1,0.3,27,4.6,38.4l0.5,1.3c2.6,6.7,3.8,15.3-2.8,21.4c-2.7-2.4-5.7-4.3-9-5.7c1-13.9-7.1-26.2-22.7-33.2l-1.3-0.6
	c-10.2-4.6-19.1-8.6-23.5-17.1c-4.8-9.2-2.1-18.1,1.1-23.9L203.2,132.8z M253.7,238.5c0,9.6-7.8,17.4-17.4,17.4
	c-9.6,0-17.4-7.8-17.4-17.4s7.8-17.4,17.4-17.4C245.9,221.1,253.7,228.9,253.7,238.5z M184,140.8c-1.3,8.2,0,16.3,3.9,23.7
	c6.9,13.2,19.6,18.9,30.8,24l1.2,0.6c6.6,3,13.6,8.2,13.7,16.7c-3.7,0.3-7.2,1.2-10.4,2.6c-9.3-10.7-23.8-13.8-39.9-8.1l-1.3,0.5
	c-10.5,3.8-19.6,7.1-28.9,4.1c-9.3-3-13.9-10.3-16.1-16C147.5,168.4,163.9,151.6,184,140.8z M130.1,271.4
	c-3.2-10.3-4.9-21.3-4.9-32.7c0-11.1,1.7-21.8,4.7-32c4.9,5.9,11.2,10.3,18.6,12.7c14.3,4.6,27.4-0.1,38.9-4.2l1.3-0.5
	c7-2.5,15.9-3.6,22.2,2.8c-2.1,2.5-3.8,5.4-5.1,8.5c-14.4-1.4-27.2,6.5-34.5,21.9l-0.6,1.2c-4.6,9.9-8.6,18.5-17.2,22.7
	c-8.8,4.3-17.4,2.2-23-0.3L130.1,271.4z M183,336.2c-19.4-10.6-35.3-26.9-45.4-46.5c1.8,0.2,3.5,0.3,5.3,0.3
	c6.1,0,12.1-1.4,17.6-4.1c13.5-6.7,19.3-19.1,24.4-30.1l0.6-1.2c3.1-6.7,8.7-13.7,18.2-13.2c0.3,3.3,1.1,6.5,2.3,9.5
	c-11.2,9-14.5,23.6-8.4,39.7l0.5,1.3c3.9,10.3,7.3,19.1,4.4,28c-3.2,9.8-11.7,14.2-18.2,16.1L183,336.2z M269.7,344.6
	c-10.6,3.4-21.8,5.2-33.5,5.2c-11.9,0-23.3-1.9-34.1-5.4c7.1-4.9,12.2-11.6,14.9-19.7c4.7-14.1-0.3-27-4.6-38.4l-0.5-1.2
	c-2.6-6.8-3.8-15.6,3-21.6c2.6,2.2,5.6,4.1,8.8,5.4c-1.3,14.1,6.9,26.7,22.6,33.8l1.2,0.6c10.2,4.6,19.1,8.6,23.5,17.1
	c4.8,9.2,2.1,18.1-1.1,23.9C270,344.2,269.9,344.5,269.7,344.6z M288.8,336.5c1.2-8.1-0.1-16.1-3.9-23.4
	c-6.9-13.2-19.6-18.9-30.8-24l-1.2-0.6c-6.7-3.1-14-8.4-13.7-17.4c3.5-0.3,6.8-1.1,9.9-2.4c9.2,11.1,24,14.5,40.3,8.6l1.3-0.5
	c10.5-3.8,19.6-7.1,28.9-4.1c9.1,2.9,13.7,9.9,15.9,15.6C325.2,308.9,308.8,325.7,288.8,336.5z M347.2,238.7c0,11-1.6,21.7-4.7,31.8
	c-4.8-5.8-11.1-10-18.3-12.4c-14.3-4.6-27.4,0.1-38.9,4.2l-1.3,0.5c-7.1,2.5-16.3,3.7-22.6-3.3c2-2.4,3.7-5.2,5-8.1
	c1.3,0.1,2.5,0.2,3.8,0.2c13.1,0,24.5-7.9,31.1-22.1l0.6-1.2c4.6-9.9,8.6-18.5,17.2-22.7c8.8-4.4,17.4-2.2,23.1,0.4
	C345.5,216.3,347.2,227.3,347.2,238.7z M312.3,191.7c-13.5,6.7-19.3,19.1-24.4,30.1l-0.6,1.2c-3.1,6.7-8.8,13.8-18.3,13.2
	c-0.2-3.3-1-6.5-2.1-9.5c11.2-9,14.5-23.6,8.4-39.6l-0.5-1.3c-3.9-10.3-7.3-19.1-4.4-28c3.2-9.8,11.7-14.2,18.2-16.1l0.9-0.2
	c19.4,10.6,35.2,26.9,45.4,46.6C327,187,319.3,188.2,312.3,191.7z"/>
<path class="st0" d="M236.2,81.6c-86.8,0-157.2,70.4-157.2,157.2s70.4,157.2,157.2,157.2c86.8,0,157.2-70.4,157.2-157.2
	S323,81.6,236.2,81.6z M236.2,376.2c-75.8,0-137.4-61.7-137.4-137.4s61.7-137.4,137.4-137.4c75.8,0,137.4,61.7,137.4,137.4
	S312,376.2,236.2,376.2z"/>
<path class="st0" d="M366.9,109.1c-14.7-14.9-33.7-25.8-50.7-29.2c-1.1-0.2-2.1,0.4-2.4,1.4c-0.3,1,0.2,2.1,1.1,2.6
	c16.1,7.4,31.7,18.4,45.1,32c13.5,13.7,24.5,29.5,31.7,45.7c0.3,0.8,1.1,1.3,1.9,1.3c0.2,0,0.4,0,0.6-0.1c1-0.3,1.7-1.4,1.4-2.4
	C392.1,142.4,381.8,124.2,366.9,109.1z"/>
<path class="st0" d="M157.1,393.5c-16.1-7.4-31.7-18.4-45.1-32c-13.5-13.7-24.5-29.5-31.7-45.7c-0.4-1-1.6-1.5-2.6-1.2
	c-1,0.3-1.7,1.4-1.4,2.4c3.6,18,13.8,36.2,28.8,51.3c14.7,14.9,33.7,25.8,50.7,29.2c0.1,0,0.3,0,0.4,0c0.9,0,1.7-0.6,2-1.5
	C158.6,395.1,158.1,394,157.1,393.5z"/>
</svg>
